<?xml version="1.0" standalone="no"?>
<!DOCTYPE svg PUBLIC "-//W3C//DTD SVG 20010904//EN"
 "http://www.w3.org/TR/2001/REC-SVG-20010904/DTD/svg10.dtd">
<svg version="1.0" xmlns="http://www.w3.org/2000/svg"
 width="1024.000000pt" height="1024.000000pt" viewBox="0 0 1024.000000 1024.000000"
 preserveAspectRatio="xMidYMid meet">

<g transform="translate(0.000000,1024.000000) scale(0.100000,-0.100000)"
fill="#000000" stroke="none">
<path d="M4015 9104 c-472 -136 -799 -283 -1170 -529 -509 -336 -950 -800
-1267 -1334 -189 -318 -355 -724 -447 -1096 -94 -378 -136 -823 -113 -1216 36
-627 164 -1112 433 -1649 217 -432 477 -783 843 -1138 440 -426 987 -759 1546
-940 89 -29 238 -72 250 -72 3 0 4 100 3 222 l-2 222 -113 37 c-833 270 -1582
877 -2037 1653 -239 407 -410 899 -471 1356 -27 201 -38 610 -21 812 49 586
219 1126 507 1608 448 750 1174 1330 2007 1605 l128 43 2 216 c2 242 9 225
-78 200z"/>
<path d="M6158 8903 l3 -218 92 -28 c202 -62 462 -175 667 -289 823 -459 1424
-1187 1714 -2075 75 -231 117 -420 153 -683 14 -106 18 -202 18 -450 0 -322
-7 -423 -46 -655 -110 -653 -415 -1297 -857 -1806 -441 -508 -965 -866 -1577
-1075 l-165 -57 0 -219 c0 -204 1 -219 18 -214 9 2 51 14 92 25 805 220 1591
768 2132 1487 379 503 658 1139 767 1754 71 394 81 931 25 1335 -92 667 -378
1358 -783 1890 -537 707 -1279 1217 -2126 1461 -65 19 -122 34 -125 34 -3 0
-4 -98 -2 -217z"/>
<path d="M2752 5488 l3 -2263 1343 -2 1342 -3 60 -30 c137 -69 315 -125 485
-151 115 -18 399 -16 511 4 256 46 471 158 628 328 31 34 59 60 60 58 7 -7
-42 -225 -64 -289 -63 -180 -206 -398 -339 -518 -213 -191 -434 -313 -702
-387 -52 -15 -100 -28 -106 -30 -10 -3 -13 -75 -13 -315 l0 -312 33 7 c72 16
271 76 364 111 436 163 781 398 1041 709 231 275 357 582 392 950 6 65 10 418
10 855 l0 745 -755 0 -755 0 0 -305 0 -305 427 0 428 0 -3 -25 c-2 -14 -17
-66 -34 -117 -84 -256 -267 -440 -518 -521 -184 -60 -430 -55 -625 11 -396
136 -659 480 -727 954 -16 112 -15 414 1 518 81 521 357 855 785 952 99 22
326 22 431 -1 276 -61 509 -238 634 -483 12 -24 25 -43 29 -43 4 0 127 80 273
178 l266 177 -46 76 c-157 258 -370 464 -600 579 -80 40 -272 104 -373 124
-200 41 -504 46 -703 12 -377 -65 -691 -232 -912 -486 -329 -379 -495 -928
-453 -1495 21 -294 63 -474 175 -767 7 -17 -25 -18 -579 -18 l-586 0 0 625 0
625 455 0 454 0 7 38 c39 228 103 441 178 590 l46 92 -570 0 -570 0 0 540 0
540 1050 0 1050 0 0 365 0 365 -1465 0 -1465 0 2 -2262z"/>
</g>
</svg>
